<svg width="20" height="19" viewBox="0 0 20 19" fill="none" xmlns="http://www.w3.org/2000/svg">
<path d="M3.42456 19C5.31581 19 6.84901 17.4539 6.84901 15.5467C6.84901 15.5458 6.8489 15.5447 6.8489 15.5439H6.84901V4.34022H17.8481V12.3406C17.4546 12.1815 17.0255 12.0932 16.5757 12.0932C14.6844 12.0932 13.1512 13.6393 13.1512 15.5465C13.1512 17.4537 14.6843 19 16.5756 19C18.4668 19 20 17.4538 20 15.5466C20 15.5458 19.9999 15.5447 19.9999 15.5438H20V4.34022V0H17.848H6.84901H4.69695V4.34022V12.3406C4.30339 12.1815 3.87436 12.0932 3.42445 12.0932C1.53317 12.0933 0 13.6394 0 15.5466C0 17.4538 1.53331 19 3.42456 19Z" fill="#2A9DF0"/>
</svg>
