<svg width="20" height="19" viewBox="0 0 20 19" fill="none" xmlns="http://www.w3.org/2000/svg">
<path fill-rule="evenodd" clip-rule="evenodd" d="M13.4546 6.90907C13.4546 8.81693 11.9079 10.3636 10 10.3636C8.09212 10.3636 6.54547 8.81693 6.54547 6.90907C6.54547 5.00118 8.09212 3.45453 10 3.45453C11.9079 3.45453 13.4546 5.00118 13.4546 6.90907ZM11.7273 6.90907C11.7273 7.86305 10.954 8.63635 10 8.63635C9.04604 8.63635 8.27274 7.86305 8.27274 6.90907C8.27274 5.95513 9.04604 5.1818 10 5.1818C10.954 5.1818 11.7273 5.95513 11.7273 6.90907Z" fill="#2A9DF0"/>
<path fill-rule="evenodd" clip-rule="evenodd" d="M10 0C4.7533 0 0.5 4.2533 0.5 9.5C0.5 14.7467 4.7533 19 10 19C15.2467 19 19.5 14.7467 19.5 9.5C19.5 4.2533 15.2467 0 10 0ZM2.22727 9.5C2.22727 11.3052 2.84266 12.9666 3.87507 14.286C5.2953 12.4268 7.53541 11.2273 10.0557 11.2273C12.5432 11.2273 14.7579 12.3959 16.1806 14.214C17.1794 12.9064 17.7727 11.2725 17.7727 9.5C17.7727 5.20724 14.2928 1.72727 10 1.72727C5.70724 1.72727 2.22727 5.20724 2.22727 9.5ZM10 17.2727C8.14298 17.2727 6.43806 16.6215 5.10117 15.5349C6.1944 13.9747 8.00592 12.9545 10.0557 12.9545C12.08 12.9545 13.8719 13.9495 14.9692 15.4771C13.622 16.5983 11.8897 17.2727 10 17.2727Z" fill="#2A9DF0"/>
</svg>
