<svg width="20" height="20" viewBox="0 0 20 20" fill="none" xmlns="http://www.w3.org/2000/svg">
<path d="M18.9763 7.90076L17.5725 7.66261C17.4263 7.19051 17.2382 6.73511 17.0085 6.3006L17.8357 5.14331C18.1866 4.65031 18.1323 3.97766 17.702 3.55151L16.457 2.30648C16.223 2.07251 15.9138 1.94299 15.5838 1.94299C15.3247 1.94299 15.0782 2.02237 14.8693 2.17278L13.7079 3.00002C13.2567 2.76187 12.7845 2.56551 12.2957 2.41928L12.0618 1.0322C11.9615 0.434752 11.4476 0.000244141 10.8418 0.000244141H9.08288C8.47707 0.000244141 7.96318 0.434752 7.86291 1.0322L7.62059 2.4527C7.15266 2.59893 6.69726 2.79112 6.26275 3.02508L5.11382 2.19785C4.90492 2.04744 4.65424 1.96806 4.39521 1.96806C4.06515 1.96806 3.7518 2.09758 3.52202 2.33154L2.27281 3.57657C1.84666 4.00273 1.78816 4.67538 2.13911 5.16838L2.9747 6.34238C2.74492 6.78107 2.56109 7.23646 2.41904 7.70857L1.03196 7.94254C0.434507 8.04281 0 8.5567 0 9.1625V10.9214C0 11.5272 0.434507 12.0411 1.03196 12.1414L2.45246 12.3837C2.59869 12.8516 2.79087 13.307 3.02484 13.7415L2.20178 14.8863C1.85083 15.3793 1.90515 16.0519 2.33548 16.4781L3.58051 17.7231C3.81447 17.9571 4.12364 18.0866 4.4537 18.0866C4.71273 18.0866 4.95923 18.0072 5.16813 17.8568L6.34214 17.0212C6.76411 17.2427 7.20697 17.4223 7.66237 17.5644L7.89634 18.9682C7.99661 19.5656 8.5105 20.0001 9.1163 20.0001H10.8794C11.4852 20.0001 11.9991 19.5656 12.0994 18.9682L12.3375 17.5644C12.8096 17.4181 13.265 17.2301 13.6995 17.0003L14.8568 17.8276C15.0657 17.978 15.3164 18.0574 15.5754 18.0574C15.9055 18.0574 16.2146 17.9279 16.4486 17.6939L17.6936 16.4489C18.1198 16.0227 18.1783 15.3501 17.8273 14.8571L17.0001 13.6956C17.2299 13.2569 17.4221 12.8015 17.5641 12.3336L18.9679 12.0996C19.5654 11.9993 19.9999 11.4854 19.9999 10.8796V9.12072C20.0082 8.51492 19.5737 8.00103 18.9763 7.90076ZM18.8802 10.8796C18.8802 10.934 18.8426 10.9799 18.7883 10.9883L17.0335 11.2807C16.8121 11.3183 16.6366 11.4813 16.5823 11.6943C16.4235 12.3085 16.1812 12.8976 15.8553 13.4449C15.7425 13.6371 15.7509 13.8752 15.8804 14.0591L16.9124 15.513C16.9416 15.5548 16.9374 15.6174 16.8998 15.655L15.6548 16.9001C15.6256 16.9293 15.5963 16.9335 15.5754 16.9335C15.5504 16.9335 15.5295 16.9251 15.5127 16.9126L14.063 15.8807C13.8833 15.7511 13.641 15.7428 13.4488 15.8556C12.9015 16.1815 12.3124 16.4238 11.6983 16.5826C11.481 16.6369 11.3181 16.8165 11.2847 17.0338L10.988 18.7885C10.9797 18.8428 10.9337 18.8804 10.8794 18.8804H9.12048C9.06616 18.8804 9.02021 18.8428 9.01185 18.7885L8.71939 17.0338C8.68179 16.8123 8.51885 16.6369 8.30578 16.5826C7.70833 16.428 7.13177 16.1898 6.59281 15.8807C6.50508 15.8305 6.40481 15.8054 6.30871 15.8054C6.19591 15.8054 6.07893 15.8389 5.98283 15.9099L4.52055 16.9502C4.49966 16.9627 4.47877 16.9711 4.45788 16.9711C4.44117 16.9711 4.40774 16.9669 4.3785 16.9377L3.13347 15.6926C3.09587 15.655 3.09169 15.5966 3.12093 15.5506L4.14871 14.1092C4.27823 13.9254 4.28658 13.683 4.17378 13.4909C3.8479 12.9477 3.59722 12.3586 3.43846 11.7445C3.37997 11.5314 3.20449 11.3685 2.98724 11.3309L1.21996 11.03C1.16565 11.0217 1.12805 10.9757 1.12805 10.9214V9.1625C1.12805 9.10819 1.16565 9.06223 1.21996 9.05387L2.96217 8.76142C3.1836 8.72381 3.36325 8.56087 3.41757 8.34362C3.57215 7.72946 3.8103 7.13619 4.132 6.58888C4.2448 6.39669 4.23227 6.15855 4.10275 5.9789L3.06244 4.51661C3.0332 4.47483 3.03737 4.41217 3.07498 4.37456L4.32001 3.12953C4.34925 3.10029 4.3785 3.09611 4.39939 3.09611C4.42446 3.09611 4.44534 3.10447 4.46206 3.117L5.90345 4.14478C6.08728 4.27429 6.3296 4.28265 6.52179 4.16984C7.06492 3.84396 7.65401 3.59329 8.26817 3.43452C8.48125 3.37603 8.64419 3.20056 8.68179 2.9833L8.9826 1.21603C8.99096 1.16172 9.03692 1.12411 9.09123 1.12411H10.8502C10.9045 1.12411 10.9504 1.16172 10.9588 1.21603L11.2512 2.95824C11.2888 3.17967 11.4518 3.35932 11.669 3.41363C12.2999 3.5724 12.9015 3.8189 13.4614 4.14895C13.6536 4.26176 13.8917 4.2534 14.0755 4.12389L15.5169 3.08775C15.5378 3.07522 15.5587 3.06686 15.5796 3.06686C15.5963 3.06686 15.6297 3.07104 15.659 3.10029L16.904 4.34532C16.9416 4.38292 16.9458 4.44141 16.9165 4.48737L15.8846 5.93712C15.7551 6.11677 15.7467 6.35909 15.8595 6.55128C16.1854 7.09859 16.4277 7.68768 16.5865 8.30184C16.6408 8.5191 16.8204 8.68204 17.0377 8.71546L18.7924 9.01209C18.8468 9.02045 18.8844 9.06641 18.8844 9.12072V10.8796H18.8802Z" fill="#2A9DF0"/>
<path d="M10.002 5.68206C7.62061 5.68206 5.68622 7.61645 5.68622 9.99789C5.68622 12.3793 7.62061 14.3137 10.002 14.3137C12.3835 14.3137 14.3179 12.3793 14.3179 9.99789C14.3179 7.61645 12.3835 5.68206 10.002 5.68206ZM10.002 13.1857C8.24313 13.1857 6.81427 11.7568 6.81427 9.99789C6.81427 8.23897 8.24313 6.81011 10.002 6.81011C11.761 6.81011 13.1898 8.23897 13.1898 9.99789C13.1898 11.7568 11.761 13.1857 10.002 13.1857Z" fill="#2A9DF0"/>
</svg>
