<svg width="24" height="16" viewBox="0 0 24 16" fill="none" xmlns="http://www.w3.org/2000/svg">
<path d="M12 9.975C11.9 9.975 11.8 9.975 11.7 9.875L0.7 5.875C0.3 5.775 0 5.375 0 4.975C0 4.575 0.3 4.175 0.7 4.075L11.7 0.075C11.9 -0.025 12.2 -0.025 12.4 0.075L23.4 4.075C23.7 4.175 24 4.575 24 4.975C24 5.375 23.7 5.775 23.3 5.875L12.3 9.875C12.2 9.975 12.1 9.975 12 9.975ZM3.9 4.975L12 7.875L20.1 4.975L12 2.075L3.9 4.975Z" fill="#EEEEEE"/>
<path d="M19 15.975H12C11.4 15.975 11 15.575 11 14.975C11 14.375 11.4 13.975 12 13.975H18C17.9 11.375 17.3 9.17499 16.3 7.57499C16 7.07499 16.2 6.47499 16.6 6.17499C17.1 5.87499 17.7 6.07499 18 6.47499C19.3 8.57499 20 11.475 20 14.875C20 15.575 19.6 15.975 19 15.975Z" fill="#EEEEEE"/>
<path d="M12 15.975H5C4.4 15.975 4 15.575 4 14.975C4 11.575 4.7 8.675 6 6.575C6.3 6.075 6.9 5.975 7.4 6.275C7.9 6.575 8 7.175 7.7 7.675C6.7 9.275 6.1 11.475 6 14.075H12C12.6 14.075 13 14.475 13 15.075C13 15.675 12.6 15.975 12 15.975Z" fill="#EEEEEE"/>
<path d="M22 15.975C21.4 15.975 21 15.575 21 14.975V4.975C21 4.375 21.4 3.975 22 3.975C22.6 3.975 23 4.375 23 4.975V14.975C23 15.575 22.6 15.975 22 15.975Z" fill="#EEEEEE"/>
</svg>
