<svg width="21" height="21" viewBox="0 0 21 21" fill="none" xmlns="http://www.w3.org/2000/svg">
<path d="M20.1409 2.40969H16.8678V0.863365C16.8678 0.408058 16.4598 0 16.0045 0C15.5492 0 15.1411 0.365105 15.1411 0.863365V2.40969H5.86745V0.863365C5.86745 0.408058 5.45939 0 5.00408 0C4.54877 0 4.14072 0.365105 4.14072 0.863365V2.40969H0.863365C0.408058 2.40969 0 2.77479 0 3.27306V20.1366C0 20.5919 0.365105 21 0.863365 21H14.9994C15.227 21 15.4074 20.9527 15.5921 20.7723L20.7294 16.0002C20.9098 15.8198 21 15.5921 21 15.3645V3.27306C21.0043 2.81775 20.6391 2.40969 20.1409 2.40969ZM1.72673 4.13642H19.2732V14.5011H14.9564C14.5011 14.5011 14.093 14.8662 14.093 15.3645V19.2732H1.72673V4.13642ZM17.9417 16.2278L15.8627 18.1436V16.2278H17.9417Z" fill="#EEEEEE"/>
<path d="M12.2976 11.0004C12.6713 10.5794 12.8946 10.0253 12.8946 9.4197C12.8946 8.10103 11.8208 7.02719 10.5021 7.02719C9.18345 7.02719 8.10961 8.10103 8.10961 9.4197C8.10961 10.0253 8.33726 10.5794 8.70666 11.0004C8.14827 11.4986 7.79605 12.2203 7.79605 13.0235C7.79605 14.514 9.01163 15.7296 10.5021 15.7296C11.9926 15.7296 13.2082 14.514 13.2082 13.0235C13.2082 12.2203 12.856 11.4986 12.2976 11.0004ZM10.5021 8.53056C10.9918 8.53056 11.3913 8.93003 11.3913 9.4197C11.3913 9.90937 10.9918 10.3088 10.5021 10.3088C10.0125 10.3088 9.61298 9.90937 9.61298 9.4197C9.61298 8.93003 10.0125 8.53056 10.5021 8.53056ZM10.5021 14.2305C9.84064 14.2305 9.29942 13.6893 9.29942 13.0278C9.29942 12.3663 9.84064 11.8251 10.5021 11.8251C11.1636 11.8251 11.7048 12.3663 11.7048 13.0278C11.7048 13.6893 11.1636 14.2305 10.5021 14.2305Z" fill="#EEEEEE"/>
</svg>
