<svg width="165" height="61" viewBox="0 0 165 61" fill="none" xmlns="http://www.w3.org/2000/svg">
<path fill-rule="evenodd" clip-rule="evenodd" d="M31.2693 0.213786C29.9315 0.657646 29.1194 1.83588 29.0154 3.48368C28.9517 4.49434 29.0987 4.97343 29.6738 5.62854C30.5919 6.67467 32.2411 6.83019 33.4012 5.98011C33.8839 5.62637 34.4332 4.74662 34.576 4.09874L34.6662 3.68914L35.049 4.27971C36.126 5.94138 36.6444 7.80936 36.7361 10.3596C36.8334 13.0622 36.3745 15.6541 35.3585 18.1413C35.0692 18.8494 35.0524 18.8652 34.5852 18.8652H34.1075L33.5781 17.4174C32.8397 15.3979 32.3482 14.3116 31.6081 13.0639C28.1369 7.21143 22.8182 4.80525 17.3427 6.61013C13.0647 8.02013 9.68504 12.0405 8.82718 16.7395C8.4655 18.7208 8.64395 21.6136 9.2529 23.6396C9.82983 25.5592 10.9752 27.8619 12.2791 29.7234L12.7861 30.4473L11.9388 30.4744C8.56534 30.5822 6.28851 31.0187 4.37274 31.925C2.84201 32.6491 1.37896 33.9875 0.749661 35.2393C-0.0506815 36.8315 -0.224613 38.9794 0.297562 40.823C1.4302 44.8221 5.32881 48.3283 9.88509 49.446C12.105 49.9905 14.8746 50.0158 17.1295 49.5122C17.5347 49.4217 17.9031 49.3696 17.948 49.3963C17.993 49.4229 18.0545 49.7308 18.0847 50.0805C18.1602 50.9542 18.6798 51.9808 19.4346 52.7475C21.2649 54.6068 24.0726 54.8943 26.2628 53.4466L26.8427 53.0632L27.0543 53.4581C27.8724 54.9848 29.9207 57.2534 31.4899 58.3706C35.2685 61.0609 40.2985 61.75 44.4364 60.1444C47.0125 59.1447 48.8948 57.1959 49.5226 54.8784C49.7776 53.9369 49.7205 52.0792 49.4024 50.967C48.8949 49.1929 47.5798 47.0683 45.7641 45.0892L44.6972 43.9264L45.5388 43.8447C51.2519 43.2908 57.066 39.6265 59.5259 35.0296C60.9587 32.3521 61.3508 29.4052 60.6857 26.3122C59.8291 22.3279 57.1628 19.8869 52.5339 18.8492C51.1336 18.5352 47.1394 18.5309 45.5013 18.8417C43.7824 19.1677 42.0049 19.7235 40.5033 20.4047L39.1473 21.0197L38.8221 20.7074L38.497 20.395L39.1486 19.2232C41.7655 14.5179 45.417 11.4553 49.5008 10.5401C49.9198 10.4462 50.2835 10.3893 50.3088 10.4138C50.3342 10.4381 50.2116 10.6666 50.0366 10.9216C49.0318 12.3837 49.5493 14.2563 51.1525 14.9597C52.5579 15.5765 54.7016 14.744 55.3749 13.3202C55.6951 12.6428 55.6813 11.5149 55.3421 10.6441C54.9684 9.68446 53.9164 8.66885 52.9392 8.32428C50.0607 7.30928 47.012 8.0375 43.4669 10.5873C42.3017 11.4254 39.9379 13.6353 39.4091 14.381C39.0107 14.9429 38.9073 14.94 39.041 14.3711C39.0994 14.1223 39.2168 13.1978 39.3017 12.3169C39.5593 9.64452 39.1892 6.9886 38.2604 4.84362C37.2295 2.46289 35.3433 0.665005 33.3385 0.152255C32.4863 -0.0657538 32.0749 -0.0534475 31.2693 0.213786ZM22.7642 8.6136C23.8374 8.88216 25.1068 9.56634 26.004 10.3596L26.7894 11.0542L25.9103 10.8779C24.7824 10.6516 21.9584 10.726 20.9053 11.0096C19.0073 11.5208 16.9265 12.6412 15.3805 13.9844C13.8597 15.3058 12.1182 17.8737 11.457 19.7701L11.2256 20.4336L11.1305 19.7097C10.7953 17.1594 11.9351 14.0321 14.0617 11.6674C15.2707 10.323 17.3447 9.06071 19.066 8.62144C19.9843 8.38702 21.843 8.38316 22.7642 8.6136ZM26.3479 13.3224C27.2387 13.5242 28.7222 14.1664 29.2922 14.5971C29.7039 14.9082 30.6715 16.7854 31.173 18.2456C31.3522 18.7674 31.4987 19.2367 31.4987 19.2887C31.4987 19.3406 31.2153 19.5577 30.8688 19.7713C28.6823 21.1193 27.6566 24.1604 28.5937 26.517L28.8539 27.1714L28.1356 27.9416C26.5394 29.6532 24.9011 31.7194 23.3947 33.921L22.9165 34.6198L22.4041 34.1443C21.7026 33.4937 20.846 32.9989 18.5608 31.9248C16.0612 30.7498 15.225 30.0595 14.3654 28.4605C13.5774 26.9944 13.274 25.827 13.2674 24.234C13.2586 22.1466 13.8742 20.2454 15.1714 18.3539C16.8752 15.8694 19.4049 14.059 22.1336 13.3716C23.2473 13.0909 25.2238 13.0679 26.3479 13.3224ZM21.8281 16.3774C20.2978 16.8572 19.2643 18.299 19.2662 19.951C19.2673 20.8918 19.3904 21.1902 20.0519 21.8548C20.5093 22.3145 21.3876 22.6656 22.08 22.6656C23.2185 22.6656 24.4826 21.8808 25.0652 20.8122C25.3498 20.2901 25.4032 20.0401 25.4038 19.2272C25.4046 18.1564 25.2541 17.7747 24.5829 17.1443C24.3608 16.9357 23.9894 16.6786 23.7574 16.5728C23.2497 16.3414 22.2618 16.2413 21.8281 16.3774ZM52.4601 21.1625C55.1422 21.7698 57.2279 23.814 58.0188 26.6108C58.4041 27.9727 58.4067 30.4021 58.0248 31.8678C57.4407 34.1091 56.4835 35.7119 54.8442 37.1934C54.2873 37.6966 53.7792 38.1084 53.7152 38.1084C53.651 38.1084 53.8185 37.6876 54.0874 37.1734C55.4028 34.6574 55.8978 31.5445 55.4257 28.7583C54.9409 25.8962 53.4473 23.3641 51.2581 21.6929L50.3198 20.9765L50.9872 20.9783C51.3545 20.9793 52.0172 21.0622 52.4601 21.1625ZM36.1105 21.6822C36.8398 22.0412 37.4986 22.7047 37.8539 23.4375C38.741 25.2678 37.5546 27.5741 35.4658 28.0794C34.3589 28.3472 33.8856 29.319 33.6369 31.8348C33.2789 35.4557 32.5453 38.3994 31.1563 41.7882C29.6753 45.401 27.2279 49.5037 25.8295 50.7174C24.6737 51.7204 22.961 52.1182 21.9072 51.6281C20.7755 51.1019 20.4522 50.091 20.6777 47.7858C20.9736 44.7605 21.7635 42.209 23.3935 39.0133C24.9894 35.8843 26.6313 33.5341 29.4198 30.387C31.3615 28.1956 31.7606 27.2302 31.1902 26.104C30.8103 25.3542 30.7825 24.1743 31.1265 23.406C31.4671 22.6454 32.2771 21.9247 33.1761 21.5823C34.0231 21.2597 35.3438 21.3046 36.1105 21.6822ZM46.5773 22.0136C49.5982 22.8666 52.2126 25.7404 52.9006 28.9643C53.4046 31.3262 52.8646 34.4136 51.5545 36.6607C50.8653 37.8428 48.9733 39.6961 47.7618 40.3761C46.4728 41.0994 45.1081 41.5002 43.6759 41.5761C42.0347 41.6629 40.7512 41.4 38.8268 40.5826C36.9774 39.7972 36.1653 39.5562 35.369 39.5562C35.0362 39.5562 34.7639 39.5348 34.7639 39.5089C34.7639 39.4828 34.9307 38.7906 35.1345 37.9706C35.6337 35.9617 36.1069 33.4337 36.2037 32.257C36.3608 30.3474 36.3151 30.4464 37.2304 30.0348C38.249 29.577 39.5004 28.444 40.0132 27.5155C40.7614 26.1606 40.9063 25.1904 40.6377 23.3342C40.5946 23.0367 41.6543 22.3966 42.7384 22.065C43.7099 21.768 45.6168 21.7424 46.5773 22.0136ZM20.6318 24.4628C20.1584 24.6593 19.4613 25.5323 19.2614 26.1791C18.9795 27.0914 19.0151 27.708 19.3921 28.4347C19.9923 29.5918 21.4479 30.0377 22.4626 29.3753C23.5247 28.682 24.0375 26.7646 23.4647 25.628C23.0595 24.8238 22.4747 24.4372 21.5967 24.3928C21.2064 24.3731 20.7722 24.4046 20.6318 24.4628ZM45.9092 26.6912C44.7915 27.0915 43.8938 28.1651 43.658 29.3836C43.4779 30.3139 43.7334 31.2072 44.3907 31.9449C44.896 32.512 45.9053 33.0381 46.4914 33.04C47.6237 33.0438 48.7117 32.2785 49.3528 31.0274C50.2132 29.3484 49.7212 27.6411 48.1538 26.8669C47.5206 26.554 46.5125 26.4751 45.9092 26.6912ZM41.4005 33.0967C40.6792 33.2728 40.1297 33.6529 39.6819 34.2858C38.7053 35.666 38.8342 36.9402 40.0286 37.7134C40.5793 38.0699 41.6037 38.0872 42.2886 37.7515C43.3635 37.2247 44.3188 35.6418 44.1327 34.6958C43.889 33.4574 42.722 32.7744 41.4005 33.0967ZM13.1476 33.1191L13.922 33.1968L13.1822 33.9369C11.9551 35.1646 11.5042 36.2572 11.5134 37.9814C11.5233 39.8479 12.2997 41.507 13.7948 42.8576C14.9829 43.9307 16.6234 44.6234 17.9768 44.6234C18.4251 44.6234 18.4605 44.6468 18.3887 44.8948C18.3455 45.0442 18.2434 45.5285 18.1618 45.9712L18.0136 46.7761L17.3154 46.9585C15.2758 47.4911 12.4917 47.5276 10.5891 47.0466C6.29077 45.9598 2.90555 42.5093 2.64873 38.9529C2.48748 36.7182 3.60982 34.9337 5.8074 33.9311C7.13281 33.3265 8.60113 33.0599 10.6648 33.0497C11.6045 33.0451 12.7218 33.0762 13.1476 33.1191ZM19.175 34.9134C19.896 35.2359 21.2806 36.5037 21.3967 36.9476C21.4371 37.1027 21.2459 37.6819 20.9117 38.4159C20.6083 39.0826 20.1725 40.1051 19.9434 40.6882C19.428 41.9999 19.2367 42.1456 18.1407 42.0612C16.6405 41.9455 14.9603 40.9142 14.354 39.7372C13.9898 39.03 14.0131 37.5251 14.4001 36.7649C15.3689 34.8613 17.3451 34.0951 19.175 34.9134ZM36.8015 42.3306C37.3882 42.4947 38.252 43.1205 38.6245 43.6513C39.8937 45.4608 38.7479 48.5421 36.5982 49.1007C36.3146 49.1744 35.6806 49.2101 35.1895 49.1802C33.5897 49.0826 31.6243 47.9507 31.6243 47.127C31.6243 46.8135 32.0026 45.9444 33.3285 43.2117C33.7555 42.3315 33.8509 42.2162 34.192 42.1677C34.7609 42.0871 36.2665 42.181 36.8015 42.3306ZM43.2584 46.1029C45.0374 47.7263 45.9546 49.0908 46.6026 51.078C47.3966 53.5128 47.0728 55.3428 45.6057 56.7112C44.8806 57.3877 43.7559 57.9453 42.5879 58.2075C41.3852 58.4775 38.4652 58.3874 37.1265 58.0389C34.5633 57.3718 32.9183 56.481 31.1781 54.818C30.1216 53.8083 29.8179 53.4283 29.3158 52.488C28.7481 51.4247 28.7266 51.3502 28.916 51.1005C29.0261 50.9554 29.3197 50.5538 29.5684 50.208L30.0207 49.5793L30.7205 50.127C32.0926 51.2007 33.4317 51.6552 35.1972 51.6462C38.8754 51.6276 41.7895 49.1015 41.8444 45.8841C41.8624 44.8307 41.8649 44.8312 43.2584 46.1029Z" fill="#2A9DF0"/>
<path d="M101.68 19.6H93.904L84.528 35.408L75.152 19.6H67.376V42H73.136V26.64L82.448 42H86.608L95.92 26.64V42H101.68V19.6ZM103.587 34.288C103.587 40.752 109.059 42.32 118.243 42.32C126.531 42.32 132.195 41.104 132.195 35.12C132.195 29.456 126.723 28.976 117.891 28.496C111.363 28.112 110.019 27.792 110.019 26.064C110.019 24.4 111.363 23.856 117.027 23.856C123.011 23.856 125.475 24.464 125.475 26.928H131.235C131.235 21.392 126.115 19.28 117.667 19.28C109.283 19.28 104.259 20.848 104.259 25.776C104.259 30.8 108.131 32.336 117.891 32.784C125.155 33.136 126.435 33.456 126.435 35.312C126.435 37.072 124.611 37.744 118.563 37.744C111.267 37.744 109.347 36.656 109.347 34.288H103.587ZM157.386 19.6V36.432L142.09 19.6H134.282V42H140.042V25.2L155.306 42H163.146V19.6H157.386Z" fill="#EFEFEF"/>
</svg>
