<svg width="18" height="21" viewBox="0 0 18 21" fill="none" xmlns="http://www.w3.org/2000/svg">
<path d="M9 0.996704C9.4142 0.996704 9.75 1.33249 9.75 1.7467V3H11.75C12.7165 3 13.5 3.7835 13.5 4.75V10H15.75C16.7165 10 17.5 10.7835 17.5 11.75V19.25C17.5 20.2165 16.7165 21 15.75 21H6.75452H6.75H2.25C1.2835 21 0.5 20.2165 0.5 19.25V10.8206C0.5 10.2017 0.82689 9.6289 1.35972 9.314L4.5 7.45837V4.75C4.5 3.7835 5.2835 3 6.25 3H8.25V1.7467C8.25 1.33249 8.5858 0.996704 9 0.996704ZM6 7.01845C6.8097 7.13845 7.5 7.82503 7.5 8.75242V19.5H10.5V11.75C10.5 10.8684 11.1519 10.139 12 10.0177V4.75C12 4.61193 11.8881 4.5 11.75 4.5H9.0094L9 4.50006L8.9906 4.5H6.25C6.11193 4.5 6 4.61193 6 4.75V7.01845ZM12.25 11.5C12.1119 11.5 12 11.6119 12 11.75V19.5H15.75C15.8881 19.5 16 19.3881 16 19.25V11.75C16 11.6119 15.8881 11.5 15.75 11.5H12.25ZM5.62282 8.53719L2.12282 10.6054C2.0467 10.6504 2 10.7322 2 10.8206V19.25C2 19.3881 2.11193 19.5 2.25 19.5H6V8.75242C6 8.55885 5.78947 8.43871 5.62282 8.53719Z" fill="#EEEEEE"/>
</svg>
