<svg width="17" height="17" viewBox="0 0 17 17" fill="none" xmlns="http://www.w3.org/2000/svg">
<path d="M15.7877 7.0736L12.9981 9.86314C12.742 10.1193 12.4005 10.2606 12.0368 10.2606C11.673 10.2606 11.3316 10.1195 11.0753 9.86308L10.7619 9.54975C10.4965 9.28435 10.4965 8.85408 10.7619 8.58868C11.0274 8.32335 11.4575 8.32335 11.723 8.58868L12.0364 8.90208L14.8267 6.11253C15.9133 5.02594 15.9132 3.25788 14.8267 2.17116C13.7399 1.08462 11.9718 1.08443 10.8852 2.17109L8.09564 4.96076L9.58552 6.45119L11.1218 4.91492C11.3872 4.64959 11.8174 4.64959 12.0829 4.91492C12.3482 5.18032 12.3482 5.61059 12.0829 5.87599L8.37345 9.58539L9.8632 11.0752C10.1194 11.3314 10.2606 11.6729 10.2606 12.0366C10.2606 12.4004 10.1195 12.7418 9.86314 12.9981L7.07366 15.7876C6.29329 16.5679 5.2521 16.9977 4.14203 16.9977C4.14197 16.9977 4.14203 16.9977 4.14197 16.9977C3.03183 16.9977 1.99064 16.5679 1.21027 15.7875C0.429845 15.007 0 13.9659 0 12.8557C0 11.7456 0.429783 10.7045 1.21015 9.92405L3.99969 7.13451C4.25588 6.87832 4.59726 6.7371 4.96101 6.73704C5.32481 6.73704 5.66632 6.8782 5.92257 7.13457L6.2359 7.44797C6.5013 7.71336 6.50123 8.14364 6.2359 8.40897C5.97051 8.6743 5.54023 8.6743 5.2749 8.40891L4.9615 8.09558L2.17122 10.8851C1.08462 11.9717 1.08462 13.7398 2.17122 14.8264C3.25788 15.9131 5.026 15.9132 6.11259 14.8266L8.90214 12.037L7.41232 10.5465L5.8758 12.083C5.61041 12.3484 5.18013 12.3484 4.91474 12.083C4.6494 11.8176 4.6494 11.3874 4.91474 11.122L6.9312 9.10551C6.93139 9.10526 6.93163 9.10501 6.93188 9.10483C6.93207 9.10458 6.93231 9.1044 6.9325 9.10421L8.62439 7.41226L7.13463 5.92244C6.87844 5.66625 6.73728 5.32475 6.73728 4.96101C6.73728 4.59726 6.87844 4.25582 7.1347 3.99957L9.92418 1.21003C10.7045 0.429783 11.7457 0 12.8558 0C12.8559 0 12.8558 0 12.8559 0C13.9661 0 15.0072 0.429783 15.7876 1.21021C17.4041 2.82673 17.4041 5.45702 15.7877 7.0736Z" fill="#EEEEEE"/>
</svg>
