<svg width="21" height="19" viewBox="0 0 21 19" fill="none" xmlns="http://www.w3.org/2000/svg">
<path d="M18.7687 0H2.23125C1.00065 0 0 0.94185 0 2.1V16.8C0 17.9581 1.00065 18.9 2.23125 18.9H18.7687C19.9993 18.9 21 17.9581 21 16.8V2.1C21 0.94185 19.9993 0 18.7687 0ZM18.7687 16.8H2.23125C2.1714 16.8 2.13045 16.7832 2.1126 16.7832C2.10525 16.7832 2.10105 16.7853 2.1 16.7916L2.0874 2.1483C2.09475 2.1378 2.142 2.1 2.23125 2.1H18.7687C18.8517 2.10105 18.8968 2.1294 18.9 2.1084L18.9126 16.7517C18.9052 16.7622 18.858 16.8 18.7687 16.8Z" fill="#2A9DF0"/>
<path d="M4.20001 4.2H10.5V10.5H4.20001V4.2ZM11.55 12.6H4.20001V14.7H16.8V12.6H12.6H11.55ZM12.6 8.4H16.8V10.5H12.6V8.4ZM12.6 4.2H16.8V6.3H12.6V4.2Z" fill="#2A9DF0"/>
</svg>
